# xmcd
#
# Track frame offsets: 
#        150
#        16686
#        47709
#        81118
#        100242
#        113385
#        130356
#        147102
#        164873
#        183508
#        199084
#        219568
#        235582
#        254095
#
# Disc length: 3605 seconds
#
# Revision: 2
# Processed by: cddbd v1.5.1PL2 Copyright (c) Steve Scherf et al.
# Submitted via: ExactAudioCopy v0.95b4
#
DISCID=c10e130e
DTITLE=Joe Bonamassa - Blues Delux
DYEAR=2003
DGENRE=Blues
TTITLE0=You Upset Me Baby
TTITLE1=Burning Hell
TTITLE2=Blues Deluxe
TTITLE3=Man Of Many Words
TTITLE4=Woke Up Dreaming
TTITLE5=I Don't Live Anywhere
TTITLE6=Wild About You Baby
TTITLE7=Long Distance Blues
TTITLE8=Pack It Up
TTITLE9=Left Overs
TTITLE10=Walking Blues
TTITLE11=Mumbling Word
TTITLE12=It's On You
TTITLE13=Revenge Of The 10 Gallon Hat
EXTD=
EXTT0=
EXTT1=
EXTT2=
EXTT3=
EXTT4=
EXTT5=
EXTT6=
EXTT7=
EXTT8=
EXTT9=
EXTT10=
EXTT11=
EXTT12=
EXTT13=
PLAYORDER=
